<?xml version="1.0" encoding="utf-8"?>
<!-- Generator: Adobe Illustrator 25.2.1, SVG Export Plug-In . SVG Version: 6.00 Build 0)  -->
<svg version="1.1"
	 id="svg1" xmlns:cc="http://web.resource.org/cc/" xmlns:dc="http://purl.org/dc/elements/1.1/" xmlns:inkscape="http://www.inkscape.org/namespaces/inkscape" xmlns:ns1="http://sozi.baierouge.fr" xmlns:rdf="http://www.w3.org/1999/02/22-rdf-syntax-ns#" xmlns:sodipodi="http://sodipodi.sourceforge.net/DTD/sodipodi-0.dtd" xmlns:svg="http://www.w3.org/2000/svg"
	 xmlns="http://www.w3.org/2000/svg" xmlns:xlink="http://www.w3.org/1999/xlink" x="0px" y="0px" viewBox="0 0 60 60"
	 style="enable-background:new 0 0 60 60;" xml:space="preserve">
<style type="text/css">
	
		.st0{fill-rule:evenodd;clip-rule:evenodd;fill:#999999;stroke:#4C4C4C;stroke-width:2.5698;stroke-linecap:round;stroke-linejoin:round;stroke-miterlimit:3.0384;}
	
		.st1{fill-rule:evenodd;clip-rule:evenodd;fill:#CCCCCC;stroke:#4C4C4C;stroke-width:2.5;stroke-linecap:round;stroke-linejoin:round;stroke-miterlimit:3.0384;}
	.st2{fill:none;stroke:#4C4C4C;stroke-width:3.75;stroke-linecap:round;stroke-linejoin:round;stroke-miterlimit:3.2894;}
	.st3{fill:none;stroke:#4C4C4C;stroke-width:1.875;stroke-linecap:round;stroke-linejoin:round;stroke-miterlimit:3.2894;}
	.st4{fill:#4C4C4C;}
	
		.st5{fill-rule:evenodd;clip-rule:evenodd;fill:#4C4C4C;stroke:#4C4C4C;stroke-width:0.1083;stroke-linecap:round;stroke-linejoin:round;stroke-miterlimit:1.1547;}
	.st6{fill:none;stroke:#4C4C4C;stroke-width:1.25;stroke-linecap:round;stroke-linejoin:round;stroke-miterlimit:3.2894;}
</style>
<sodipodi:namedview  bordercolor="#666666" borderopacity="1.0" id="base" inkscape:cx="37.930668" inkscape:cy="21.322519" inkscape:pageopacity="0.0" inkscape:pageshadow="2" inkscape:window-height="693" inkscape:window-width="1016" inkscape:window-x="0" inkscape:window-y="0" inkscape:zoom="4.9119410" pagecolor="#ffffff" showguides="true" snaptoguides="true">
	</sodipodi:namedview>
<path id="path836" sodipodi:nodetypes="ccccc" sodipodi:stroke-cmyk="(0.0000000 0.0000000 0.0000000 0.69999999)" class="st0" d="
	M51,12.4c1,6.4,2.8,32.2-0.9,32.2c-3.7,0-12.7,1.2-12.7,1.2l5.3-32.8C42.7,13.1,51,12.4,51,12.4z"/>
<path id="path835" sodipodi:nodetypes="ccccc" sodipodi:stroke-cmyk="(0.0000000 0.0000000 0.0000000 0.69999999)" class="st1" d="
	M50.7,12.1c-13.9,15.6,2.9,37-11.9,35.9C24.1,47,22.3,51.9,10.4,47c0-20.1-8.7-34.7,5.3-35.8C29.8,10,50.7,12.1,50.7,12.1L50.7,12.1
	z"/>
<path id="path837" sodipodi:nodetypes="cc" sodipodi:stroke-cmyk="(0.0000000 0.0000000 0.0000000 0.69999999)" class="st2" d="
	M14.1,17.5h26.3"/>
<path id="path838" sodipodi:nodetypes="cccccccccccc" sodipodi:stroke-cmyk="(0.0000000 0.0000000 0.0000000 0.69999999)" class="st3" d="
	M13.1,22.4h27.4 M14.6,26.6H40 M14.8,30.6h10.6 M14,34.7h11.4 M14,38.9l11.6-0.1 M14.3,42.7h11.1"/>
<path id="path839" class="st4" d="M34.3,38.4v-8c0-0.3,0.1-0.5,0.3-0.7s0.4-0.3,0.7-0.3s0.6,0.1,0.7,0.3c0.2,0.2,0.3,0.4,0.3,0.8v3
	l3.4-3.6c0.2-0.3,0.5-0.4,0.8-0.4c0.3,0,0.5,0.1,0.7,0.3c0.2,0.2,0.3,0.4,0.3,0.7c0,0.2-0.1,0.3-0.2,0.5c-0.1,0.2-0.3,0.4-0.5,0.6
	L38.3,34l3.2,3.4c0.2,0.2,0.3,0.3,0.4,0.5C42,38,42,38.2,42,38.4c0,0.3-0.1,0.6-0.3,0.7c-0.2,0.2-0.5,0.2-0.8,0.2
	c-0.2,0-0.3,0-0.5-0.1c-0.1-0.1-0.3-0.3-0.6-0.5l-3.6-3.9v3.5c0,0.3-0.1,0.5-0.3,0.7s-0.4,0.3-0.7,0.3c-0.3,0-0.5-0.1-0.7-0.3
	C34.4,38.9,34.3,38.7,34.3,38.4L34.3,38.4z"/>
<path id="path705" sodipodi:nodetypes="ccccccccccccccccccccccc" sodipodi:stroke-cmyk="(0.0000000 0.0000000 0.0000000 0.69999999)" class="st5" d="
	M29.2,42.3l1.3,1.4l2.1-1.4l1.7,0.8l0.6,2.5l1.8,0l0.5-2.5l1.7-0.7l2.1,1.4l1-1.4l-2.4-2.3c-6.2,5.7-11.6-3.1-6.3-6.8v-1.3l-0.6,0.3
	l-2-1.2L29.5,32l1.2,2.1L30,35.8l-2.4,0.4l0,1.8l2.5,0.6l0.7,1.7C30.8,40.3,29.2,42.3,29.2,42.3z"/>
<path id="path850" sodipodi:stroke-cmyk="(0.0000000 0.0000000 0.0000000 0.69999999)" class="st6" d="M47.9,17.5
	c-1.7,12.6,0.9,26.4,0.9,26.4"/>
<path id="path851" sodipodi:nodetypes="cc" sodipodi:stroke-cmyk="(0.0000000 0.0000000 0.0000000 0.69999999)" class="st6" d="
	M49.9,15.8c-1.3,14.4,0.8,26.6,0.8,26.6"/>
</svg>
